<?xml version="1.0" encoding="utf-8"?>
<!-- Generator: Adobe Illustrator 16.0.0, SVG Export Plug-In . SVG Version: 6.00 Build 0)  -->
<!DOCTYPE svg PUBLIC "-//W3C//DTD SVG 1.1//EN" "http://www.w3.org/Graphics/SVG/1.1/DTD/svg11.dtd">
<svg version="1.1" id="Layer_1" xmlns="http://www.w3.org/2000/svg" xmlns:xlink="http://www.w3.org/1999/xlink" x="0px" y="0px"
	 width="188.357px" height="65.066px" viewBox="0 0 188.357 65.066" enable-background="new 0 0 188.357 65.066"
	 xml:space="preserve">
<g>
	<g>
		<g>
			<defs>
				<path id="SVGID_1_" d="M165.928,47.728c0.307,1.662,0.424,3.367,0.27,5.109c-1.586,5.727-16.562,12.229-28.41,9.02
					c9.101,2.902,18.152,2.091,27.133-2.981c0,0,0-0.039,0.043-0.039c8.357-4.992,14.084-11.879,15.593-21.831
					C176.26,41.573,171.383,45.136,165.928,47.728 M160.934,33.485c1.741,3.716,3.137,7.47,4.102,11.302
					c-5.459,4.217-14.707,6.58-23.262,7.235c8.322,0.623,19.471-2.285,23.844-4.955c6.967-4.407,12.848-9.174,15.326-14.861
					c0.27-3.093-0.305-6.423-1.354-9.52C173.82,27.139,167.588,30.621,160.934,33.485 M152.379,5.037
					c-1.819,1.857-3.948,3.483-6.383,4.838c2.279,2.632,4.406,5.417,6.383,8.245c1.914,2.758,3.691,5.598,5.328,8.509
					c-1.426,1.037-3.069,2.104-4.883,3.175c-6.891,4.063-16.178,8.049-24.463,10.411c8.359-2.014,16.6-5.031,24.463-8.593
					c1.826-0.813,7.014-3.442,7.055-3.462v-0.003c6.312-3.249,11.908-7.065,16.457-12.94c-4.834-7.508-11.416-12.653-20.434-14.513
					C154.857,2.25,153.693,3.724,152.379,5.037 M138.332,1.747c-1.822,0.466-4.26,2.09-4.875,3.174
					c-1.008,1.664-0.776,3.406,4.797,2.207c-3.946-0.738-4.182-2.904-0.041-5.302c1.822,1.74,3.644,3.482,5.345,5.342
					c-3.757,3.947-10.064,6.81-17.884,9.171c7.316-0.891,14.244-3.097,19.857-7.16c3.984-2.79,6.887-5.77,7.895-8.943
					C152.172,0.077,150.902,0,149.619,0C145.953,0,142.174,0.629,138.332,1.747"/>
			</defs>
			<clipPath id="SVGID_2_">
				<use xlink:href="#SVGID_1_"  overflow="visible"/>
			</clipPath>
			
				<linearGradient id="SVGID_3_" gradientUnits="userSpaceOnUse" x1="-709.1687" y1="354.5803" x2="-708.1687" y2="354.5803" gradientTransform="matrix(0 -63.5259 63.5259 0 -22371.5586 -44987.0117)">
				<stop  offset="0" style="stop-color:#416819"/>
				<stop  offset="0.196" style="stop-color:#4B741F"/>
				<stop  offset="0.5979" style="stop-color:#65942D"/>
				<stop  offset="1" style="stop-color:#82B83A"/>
			</linearGradient>
			<rect x="125.674" y="0" clip-path="url(#SVGID_2_)" fill="url(#SVGID_3_)" width="55.539" height="65.066"/>
		</g>
	</g>
	<g>
		<g>
			<defs>
				<path id="SVGID_4_" d="M19.975,60.198c-0.351,0.389-0.509,0.812-0.509,1.274c0,0.504,0.158,0.933,0.509,1.275
					c0.387,0.352,0.812,0.508,1.278,0.508c0.498,0,0.925-0.156,1.273-0.508c0.311-0.385,0.506-0.812,0.506-1.275
					c0-0.463-0.195-0.887-0.541-1.274c-0.352-0.351-0.777-0.546-1.238-0.546C20.787,59.653,20.361,59.849,19.975,60.198
					 M24.191,60.198c-0.346,0.389-0.541,0.812-0.541,1.274c0,0.504,0.195,0.933,0.541,1.275c0.348,0.352,0.772,0.508,1.279,0.508
					c0.463,0,0.889-0.156,1.235-0.508c0.351-0.385,0.539-0.812,0.539-1.275c0-0.504-0.188-0.932-0.539-1.274
					c-0.348-0.351-0.772-0.546-1.235-0.546C24.965,59.653,24.539,59.849,24.191,60.198 M76.828,60.05
					c-0.348,0.348-0.541,0.771-0.541,1.275c0,0.461,0.193,0.893,0.541,1.241s0.775,0.539,1.238,0.539c0.504,0,0.93-0.19,1.272-0.539
					c0.354-0.35,0.543-0.78,0.543-1.241c0-0.505-0.188-0.929-0.543-1.275c-0.344-0.348-0.77-0.541-1.272-0.541
					C77.604,59.509,77.176,59.663,76.828,60.05 M2.826,47.55c-0.654,0.965-1.158,1.664-1.584,2.047h9.832
					c0.773,0,1.312,0.156,1.662,0.543c0.27,0.271,0.428,0.736,0.428,1.398v1.192H1.242v3.834h18.031h1.473h7.084V45.458
					c0-0.39-0.117-0.58-0.348-0.58l-0.353,0.076c-0.073,0.037-0.231,0.194-0.385,0.465c-0.195,0.158-0.387,0.35-0.58,0.541
					c-0.156,0.119-0.389,0.313-0.694,0.582l-0.814,0.656l-0.465,0.312c-0.193,0.115-0.312,0.229-0.387,0.35
					c-0.113,0.074-0.154,0.193-0.154,0.308c0,0.233,0.078,0.387,0.195,0.463c0.114,0.156,0.188,0.311,0.188,0.43v3.672h-3.289
					h-1.473h-2.318V51.11c0-1.977-0.543-3.407-1.627-4.297c-0.852-0.657-2.014-1.006-3.525-1.006H7.472H5.844
					c-0.191-0.039-0.462-0.154-0.73-0.271c-0.275-0.195-0.545-0.545-0.855-1.011C4.066,45.306,3.604,46.308,2.826,47.55
					 M92.695,35.125c-0.074,0.038-0.23,0.193-0.422,0.425c-0.312,0.347-0.736,0.738-1.277,1.16l-0.658,0.543l-0.58,0.385
					l-0.348,0.273c-0.119,0.153-0.197,0.27-0.197,0.385c0,0.231,0.078,0.389,0.197,0.508c0.111,0.152,0.191,0.266,0.191,0.383
					v13.545h-2.824c-0.773,0-1.437-0.27-1.975-0.731c-0.31-0.31-0.619-0.773-0.97-1.314c-0.348-0.582-0.658-1.276-1.004-2.17
					c-1.168-2.67-2.438-4.488-3.912-5.455c-1.125-0.737-2.631-1.084-4.487-1.084l-0.892,0.037l-0.772,0.115l-0.97,0.27l1.584,4.3
					c0.195-0.238,0.433-0.423,0.74-0.541c0.191-0.115,0.351-0.154,0.465-0.195l0.615-0.039c1.24,0,2.211,0.582,2.865,1.705
					l1.432,3.287l0.426,0.776l0.47,0.658c0.114,0.154,0.266,0.31,0.422,0.383H70.637h-1.474h-5.422h-1.467h-5.416h-1.471h-5.462
					H48.46h-2.321V51.11c0-1.977-0.543-3.407-1.668-4.297c-0.853-0.657-2.013-1.006-3.484-1.006h-4.371h-1.588
					c-0.232-0.039-0.463-0.154-0.736-0.271c-0.266-0.195-0.58-0.545-0.846-1.011c-0.197,0.779-0.658,1.781-1.438,3.023
					c-0.655,0.965-1.159,1.664-1.586,2.047h9.832c0.732,0,1.316,0.156,1.625,0.543c0.312,0.271,0.427,0.736,0.427,1.398v1.192
					H30.422v3.834h18.039h1.468h5.461h1.471h5.416h1.467h5.422h1.474h22.758V35.626c0-0.427-0.115-0.619-0.351-0.619L92.695,35.125z
					 M99.973,35.125l-0.425,0.425l-0.582,0.541L98.27,36.71c-0.386,0.35-0.812,0.663-1.195,0.928l-0.393,0.273
					c-0.115,0.192-0.191,0.307-0.191,0.385c0,0.195,0.076,0.35,0.191,0.508c0.118,0.113,0.194,0.266,0.194,0.383v17.379h3.791
					V35.626c0-0.427-0.112-0.619-0.385-0.619L99.973,35.125z M5.77,10.991l-0.158,0.312l-1.779,3.018l-0.229,0.466l-0.078,0.271
					l0.037,0.309l0.076,0.115l0.155,0.197l0.312,0.27c0.617,0.539,1.08,1.198,1.432,2.01c0.385,0.816,0.539,1.628,0.539,2.401
					c0,1.433-0.498,2.633-1.508,3.599c-1.043,0.969-2.246,1.473-3.676,1.473H0.699c-0.271,0-0.465,0.04-0.541,0.077
					C0.041,25.586,0,25.659,0,25.777c0,0.311,0.312,0.583,0.97,0.774c0.62,0.193,1.395,0.31,2.284,0.31
					c2.129,0,3.869-0.657,5.146-1.936c1.315-1.313,1.938-3.019,1.938-5.146c0-0.659-0.08-1.355-0.235-2.128
					c-0.115-0.738-0.349-1.474-0.617-2.171c-0.271-0.694-0.582-1.315-0.853-1.897c-0.311-0.54-0.616-1.081-0.965-1.544
					c-0.698-0.892-1.203-1.318-1.477-1.318C6.039,10.721,5.922,10.798,5.77,10.991 M22.141,13.005
					c-0.697,0.969-1.238,1.664-1.664,2.052h10.371c0.813,0,1.395,0.195,1.741,0.54c0.312,0.312,0.427,0.777,0.427,1.396v1.199
					H20.477v3.832h19.041h1.547h5.731h1.548h5.727h1.551h5.729h1.586h1.16c0.463,1.2,1.237,2.168,2.319,2.902
					c1.047,0.733,2.285,1.087,3.64,1.087v-3.794c-0.349,0-0.617-0.041-0.892-0.157c-0.229-0.116-0.463-0.229-0.656-0.463
					c-0.465-0.389-0.657-0.891-0.657-1.471s0.192-1.049,0.657-1.473c0.427-0.387,0.931-0.618,1.548-0.618v-4.722l-0.541,0.463
					l-0.427,0.387l-1.586,0.583c-0.539,0.232-1.045,0.503-1.434,0.812c-0.426,0.35-0.775,0.735-1.121,1.161
					c-0.35,0.425-0.621,0.931-0.852,1.47h-1.16H61.35h-5.729H54.07h-5.728h-1.547h-5.731h-1.547H37.04v-1.586
					c0-2.014-0.578-3.445-1.74-4.336c-0.891-0.654-2.133-1.006-3.68-1.006h-4.604h-1.701c-0.195-0.039-0.463-0.115-0.775-0.271
					c-0.271-0.151-0.578-0.502-0.889-1.007C23.455,10.761,22.955,11.765,22.141,13.005 M16.799,0.582l-0.461,0.425l-0.58,0.544
					l-0.739,0.617c-0.427,0.347-0.853,0.657-1.273,0.93l-0.43,0.308c-0.15,0.158-0.191,0.272-0.191,0.389
					c0,0.156,0.041,0.309,0.191,0.463c0.117,0.117,0.192,0.27,0.192,0.388v17.378h3.99V1.086c0-0.427-0.117-0.62-0.35-0.62
					L16.799,0.582z M91.885,0.582c-0.075,0.038-0.231,0.19-0.463,0.425l-0.621,0.579l-0.694,0.582
					c-0.543,0.425-0.969,0.731-1.316,0.93l-0.352,0.269c-0.152,0.157-0.269,0.27-0.269,0.428c0,0.156,0.078,0.347,0.232,0.501
					c0.117,0.156,0.193,0.272,0.193,0.35v13.546h-1.16h-1.588h-5.729H78.57h-2.594l-0.427-0.852
					c-0.114-0.232-0.272-0.465-0.426-0.655c-0.19-0.272-0.387-0.467-0.582-0.661c-0.151-0.153-0.346-0.309-0.539-0.463
					c-0.465-0.35-0.928-0.62-1.393-0.773c-0.314-0.154-0.58-0.233-0.853-0.351l-0.774-0.271l-0.195-0.155l-0.229-0.231
					c-0.152-0.155-0.273-0.271-0.39-0.347l-0.114-0.116v4.722c0.618,0.038,1.125,0.231,1.551,0.618
					c0.426,0.424,0.656,0.893,0.656,1.473c0,0.617-0.23,1.082-0.656,1.509c-0.426,0.387-0.933,0.582-1.551,0.582v3.794
					c1.354,0,2.594-0.389,3.68-1.125c1.08-0.773,1.815-1.702,2.242-2.864h2.594h1.549h5.729h1.588h5.147V1.086
					c0-0.427-0.119-0.62-0.352-0.62L91.885,0.582z M99.625,0.582L99.16,1.007l-0.58,0.544l-0.735,0.617
					c-0.427,0.347-0.853,0.657-1.277,0.93l-0.426,0.308c-0.113,0.158-0.191,0.272-0.191,0.389c0,0.156,0.078,0.309,0.191,0.463
					c0.155,0.117,0.196,0.27,0.196,0.388v17.378h4.023V1.086c0-0.427-0.154-0.62-0.389-0.62L99.625,0.582z"/>
			</defs>
			<clipPath id="SVGID_5_">
				<use xlink:href="#SVGID_4_"  overflow="visible"/>
			</clipPath>
			
				<linearGradient id="SVGID_6_" gradientUnits="userSpaceOnUse" x1="-709.2234" y1="354.7053" x2="-708.2234" y2="354.7053" gradientTransform="matrix(0 -62.791 62.791 0 -22221.9492 -44469.5859)">
				<stop  offset="0" style="stop-color:#416819"/>
				<stop  offset="0.2029" style="stop-color:#4B741F"/>
				<stop  offset="0.6161" style="stop-color:#65942D"/>
				<stop  offset="1" style="stop-color:#7FB539"/>
			</linearGradient>
			<rect x="0" y="0.466" clip-path="url(#SVGID_5_)" fill="url(#SVGID_6_)" width="100.668" height="62.791"/>
		</g>
	</g>
	<g>
		<path fill="#9D9FA2" d="M106.793,47.021c0.209,0,0.438-0.008,0.683-0.012c61.592-9.426,102.551-41.938,59.682-46.096
			c0.084,0.02,0.162,0.037,0.24,0.058C208.871,8.524,160.426,38.251,106.793,47.021"/>
		<path fill="#9D9FA2" d="M167.01,0.897c0.078,0.013,0.152,0.026,0.23,0.041c-0.035-0.012-0.068-0.02-0.1-0.028
			C167.096,0.906,167.057,0.9,167.01,0.897"/>
		<path fill="#9D9FA2" d="M167.088,0.897c0.015,0.003,0.031,0.01,0.054,0.013c0.006,0,0.01,0.003,0.016,0.003
			C167.135,0.906,167.111,0.902,167.088,0.897"/>
		<path fill="#939598" d="M106.752,47.021c48.312-8.367,102.779-36.53,60.646-46.05c-0.053-0.012-0.105-0.023-0.158-0.032
			c37.02,9.823-10.859,35.347-57.471,45.162c-0.74,0.156-3.365,0.662-4.103,0.775c-0.199,0.033-0.381,0.061-0.551,0.09
			C105.48,47.003,106.004,47.026,106.752,47.021"/>
		<path fill="#9D9FA2" d="M167.156,0.912c-0.006,0-0.012-0.003-0.018-0.003c0.032,0.009,0.067,0.018,0.102,0.028
			c0.053,0.01,0.105,0.021,0.156,0.032C167.318,0.95,167.24,0.933,167.156,0.912"/>
		<path d="M174.119,1.022c26.428,2.472,13.002,26.082-34.422,39.535c-0.117,0.031-0.234,0.066-0.35,0.099
			c-0.14,0.04-0.279,0.075-0.418,0.118c-4.728,1.336-9.746,2.545-15.027,3.597c-4.17,0.84-8.547,1.604-13.109,2.28
			c-0.686,0.104-1.379,0.201-2.065,0.306c0.86-0.047,1.897-0.121,3.127-0.23c3.385-0.492,6.666-1.035,9.836-1.629
			C184.812,33.236,205,3.219,174.119,1.022"/>
		<path fill="#939598" d="M110.793,46.649c3.658-0.562,7.238-1.176,10.742-1.828c0.795-0.146,1.588-0.299,2.367-0.45
			c5.332-1.082,10.344-2.287,15.027-3.597c0.139-0.043,0.276-0.078,0.418-0.118c0.114-0.031,0.229-0.066,0.35-0.099
			c45.234-13,63.436-37.49,28.24-39.622c2.254-0.082,4.309-0.046,6.182,0.087c-2.164-0.203-4.598-0.264-7.301-0.165
			c42.299,2.469,6.967,36.327-58.863,46.137c0.215-0.011,0.438-0.023,0.672-0.033C109.355,46.86,110.074,46.755,110.793,46.649"/>
		<path fill="#BCBEC0" d="M110.793,46.649c4.562-0.674,8.939-1.438,13.109-2.278c-0.779,0.151-1.572,0.305-2.367,0.45
			C118.031,45.474,114.451,46.087,110.793,46.649"/>
		<path fill="#BCBEC0" d="M139.348,40.656c-0.142,0.04-0.279,0.075-0.418,0.118C139.068,40.731,139.207,40.696,139.348,40.656"/>
		<path fill="#939598" d="M167.936,0.936c35.196,2.132,16.996,26.623-28.236,39.622c47.422-13.453,60.848-37.063,34.42-39.535
			C172.248,0.89,170.191,0.853,167.936,0.936"/>
	</g>
</g>
</svg>
