<?xml version="1.0" encoding="utf-8"?>
<!-- Generator: Adobe Illustrator 18.0.0, SVG Export Plug-In . SVG Version: 6.00 Build 0)  -->
<!DOCTYPE svg PUBLIC "-//W3C//DTD SVG 1.1//EN" "http://www.w3.org/Graphics/SVG/1.1/DTD/svg11.dtd">
<svg version="1.1" id="Layer_1" xmlns="http://www.w3.org/2000/svg" xmlns:xlink="http://www.w3.org/1999/xlink" x="0px" y="0px"
	 viewBox="0 0 29.4 42.4" style="enable-background:new 0 0 29.4 42.4;" xml:space="preserve">
<style type="text/css">
	.st0{fill:#8A8A8A;}
</style>
<path class="st0" d="M28.8,33.6c-0.6,2.1-4.4,6.5-5.1,7.4c-1.4,1.8-12.1,1.9-13.7,0c-4-4.8-9.1-15.9-9.5-16.8
	c-1.1-2-0.4-4.5,1.6-5.6c1.7-1,3.8-0.6,5.1,0.8v-6.6C5.1,11.6,3.8,9.1,4,6.5C4.3,2.6,7.7-0.3,11.5,0c3.9,0.3,6.7,3.7,6.4,7.6
	c-0.2,2.3-1.4,4.2-3.2,5.3v1.6c0.4-0.2,0.8-0.2,1.3-0.2c1.3,0,2.4,0.7,3.1,1.7c0.5-0.3,1.1-0.5,1.8-0.5c1.7,0,3.1,1.2,3.5,2.8
	c0.4-0.2,0.9-0.3,1.4-0.3c2,0,3.6,1.6,3.6,3.6C29.4,22.6,29.7,30.8,28.8,33.6z M27,21.7C27,21.7,27,21.7,27,21.7
	c0-0.7-0.6-1.3-1.3-1.3c-0.7,0-1.3,0.6-1.3,1.3v0.2v0.5c0,0.6-0.5,1.2-1.2,1.2c-0.6,0-1.2-0.5-1.2-1.2v-0.5v-0.2v-2.5
	c0-0.7-0.6-1.3-1.3-1.3c-0.7,0-1.3,0.6-1.3,1.3v1.5v1.3c0,0.6-0.5,1.2-1.2,1.2c-0.6,0-1.2-0.5-1.2-1.2v-1.3v-1.5v-1.3
	c0-0.7-0.6-1.3-1.3-1.3c-0.7,0-1.3,0.6-1.3,1.3v2.7c0,0,0,0.1,0,0.1v0c0,0.6-0.5,1.2-1.2,1.2c-0.6,0-1.2-0.5-1.2-1.2v-9.9
	c1-0.4,1.7-1.3,2-2.3c0.2,0.4,0.3,0.9,0.3,1.4v1.2c1-0.9,1.6-2.2,1.8-3.6c0.2-3.1-2-5.8-5.1-6c-3.1-0.2-5.8,2-6,5.1
	C5.3,8.3,6,10,7.2,11.1V9.9c0-0.5,0.1-0.9,0.3-1.4c0.3,1,1.1,1.9,2,2.3v12.8c0,0.4-0.2,0.9-0.6,1.1c-0.6,0.3-1.3,0.1-1.6-0.4
	l-1.6-2.9c-0.5-0.9-1.6-1.2-2.5-0.7c-0.9,0.5-1.2,1.6-0.7,2.5c0,0,0,0.1,0,0.1c0.1,0.1,7,14.7,8.9,15.9c1.9,1.1,9.5,1,10.8,0
	c1.3-1,4-5,4.3-6.1C27.2,30.9,27.1,24.1,27,21.7z M11,8.4c0.8,0,1.5,0.7,1.5,1.5v0.9c1-0.4,1.7-1.3,2-2.3C14,7.1,12.6,6.1,11,6.1
	c-1.6,0-3,1-3.5,2.4c0.3,1,1.1,1.9,2,2.3V9.9C9.5,9.1,10.2,8.4,11,8.4z"/>
</svg>
