<?xml version="1.0" encoding="utf-8"?>
<!-- Generator: Adobe Illustrator 21.1.0, SVG Export Plug-In . SVG Version: 6.00 Build 0)  -->
<svg version="1.1" id="Layer_1" xmlns="http://www.w3.org/2000/svg" xmlns:xlink="http://www.w3.org/1999/xlink" x="0px" y="0px"
	 viewBox="0 0 250 250" style="enable-background:new 0 0 250 250;" xml:space="preserve">
<style type="text/css">
	.st0{fill:url(#SVGID_1_);}
	.st1{fill:url(#SVGID_2_);}
	.st2{fill:url(#SVGID_3_);}
	.st3{fill:url(#SVGID_4_);}
	.st4{fill:url(#SVGID_5_);}
	.st5{fill:url(#SVGID_6_);}
	.st6{fill:url(#SVGID_7_);}
	.st7{fill:url(#SVGID_8_);}
	.st8{fill:url(#SVGID_9_);}
	.st9{fill:url(#SVGID_10_);}
	.st10{fill:url(#SVGID_11_);}
	.st11{fill:url(#SVGID_12_);}
	.st12{fill:url(#SVGID_13_);}
	.st13{fill:url(#SVGID_14_);}
	.st14{fill:url(#SVGID_15_);}
	.st15{fill:url(#SVGID_16_);}
	.st16{fill:url(#SVGID_17_);}
	.st17{fill:url(#SVGID_18_);}
</style>
<g>
	
		<linearGradient id="SVGID_1_" gradientUnits="userSpaceOnUse" x1="122.3369" y1="154.1732" x2="129.8519" y2="154.1732" gradientTransform="matrix(1 0 0 -1 0 252)">
		<stop  offset="0" style="stop-color:#005B8C"/>
		<stop  offset="1" style="stop-color:#0C2B4B"/>
	</linearGradient>
	<polygon class="st0" points="129.9,114.2 126,111.8 122.3,114 122.3,83.9 126.1,81.4 129.9,83.9 	"/>
	
		<linearGradient id="SVGID_2_" gradientUnits="userSpaceOnUse" x1="75.2967" y1="139.4372" x2="90.1045" y2="118.3303" gradientTransform="matrix(1 0 0 -1 0 252)">
		<stop  offset="0" style="stop-color:#005B8C"/>
		<stop  offset="1" style="stop-color:#0C2B4B"/>
	</linearGradient>
	<polyline class="st1" points="126.4,111.8 47.5,158.5 24,143.6 126.5,81.4 	"/>
	
		<linearGradient id="SVGID_3_" gradientUnits="userSpaceOnUse" x1="176.3821" y1="139.1898" x2="164.8874" y2="115.8402" gradientTransform="matrix(1 0 0 -1 0 252)">
		<stop  offset="0" style="stop-color:#005B8C"/>
		<stop  offset="1" style="stop-color:#0C2B4B"/>
	</linearGradient>
	<polyline class="st2" points="126.1,81.4 226.7,144 202.4,159.4 126,111.8 	"/>
</g>
<linearGradient id="SVGID_4_" gradientUnits="userSpaceOnUse" x1="363.5961" y1="290.6142" x2="371.1111" y2="290.6142" gradientTransform="matrix(-1 0 0 1 493.0547 -69.7734)">
	<stop  offset="0" style="stop-color:#005B8C"/>
	<stop  offset="1" style="stop-color:#0C2B4B"/>
</linearGradient>
<polygon class="st3" points="121.9,204.1 126.2,206.6 129.5,204.4 129.5,235.1 126.1,237.5 121.9,234.4 "/>
<linearGradient id="SVGID_5_" gradientUnits="userSpaceOnUse" x1="310.0275" y1="269.9594" x2="324.3548" y2="249.5371" gradientTransform="matrix(-1 0 0 1 493.0547 -69.7734)">
	<stop  offset="0" style="stop-color:#005B8C"/>
	<stop  offset="1" style="stop-color:#0C2B4B"/>
</linearGradient>
<polyline class="st4" points="126.2,206.1 226.7,144 226.7,174.2 126.1,237.5 "/>
<linearGradient id="SVGID_6_" gradientUnits="userSpaceOnUse" x1="423.7935" y1="272.1861" x2="411.3751" y2="246.9574" gradientTransform="matrix(-1 0 0 1 493.0547 -69.7734)">
	<stop  offset="0" style="stop-color:#005B8C"/>
	<stop  offset="1" style="stop-color:#0C2B4B"/>
</linearGradient>
<polyline class="st5" points="126.1,237.5 24,174.9 24,143.6 126.2,206.1 "/>
<g>
	
		<linearGradient id="SVGID_7_" gradientUnits="userSpaceOnUse" x1="122.3369" y1="189.2397" x2="129.8519" y2="189.2397" gradientTransform="matrix(1 0 0 -1 0 252)">
		<stop  offset="0" style="stop-color:#0072AA"/>
		<stop  offset="1" style="stop-color:#09446B"/>
	</linearGradient>
	<polygon class="st6" points="129.9,79.1 126,76.7 122.3,78.9 122.3,48.8 126.1,46.4 129.9,48.8 	"/>
	
		<linearGradient id="SVGID_8_" gradientUnits="userSpaceOnUse" x1="75.2955" y1="174.5054" x2="90.1033" y2="153.3992" gradientTransform="matrix(1 0 0 -1 0 252)">
		<stop  offset="0" style="stop-color:#0072AA"/>
		<stop  offset="1" style="stop-color:#09446B"/>
	</linearGradient>
	<polyline class="st7" points="126.4,76.7 47.5,123.4 24,108.6 126.5,46.4 	"/>
	
		<linearGradient id="SVGID_9_" gradientUnits="userSpaceOnUse" x1="176.3832" y1="174.2551" x2="164.8885" y2="150.9055" gradientTransform="matrix(1 0 0 -1 0 252)">
		<stop  offset="0" style="stop-color:#0072AA"/>
		<stop  offset="1" style="stop-color:#09446B"/>
	</linearGradient>
	<polyline class="st8" points="126.1,46.4 226.7,109 202.4,124.3 126,76.7 	"/>
</g>
<linearGradient id="SVGID_10_" gradientUnits="userSpaceOnUse" x1="363.5961" y1="255.5443" x2="371.1111" y2="255.5443" gradientTransform="matrix(-1 0 0 1 493.0547 -69.7734)">
	<stop  offset="0" style="stop-color:#005B8C"/>
	<stop  offset="1" style="stop-color:#0C2B4B"/>
</linearGradient>
<polygon class="st9" points="121.9,169.1 126.2,171.5 129.5,169.3 129.5,200.1 126.1,202.5 121.9,199.3 "/>
<linearGradient id="SVGID_11_" gradientUnits="userSpaceOnUse" x1="310.0284" y1="234.8914" x2="324.3544" y2="214.4713" gradientTransform="matrix(-1 0 0 1 493.0547 -69.7734)">
	<stop  offset="0" style="stop-color:#0072AA"/>
	<stop  offset="1" style="stop-color:#09446B"/>
</linearGradient>
<polyline class="st10" points="126.2,171 226.7,109 226.7,139.2 126.1,202.5 "/>
<linearGradient id="SVGID_12_" gradientUnits="userSpaceOnUse" x1="423.7932" y1="237.1149" x2="411.3748" y2="211.8875" gradientTransform="matrix(-1 0 0 1 493.0547 -69.7734)">
	<stop  offset="0" style="stop-color:#0072AA"/>
	<stop  offset="1" style="stop-color:#09446B"/>
</linearGradient>
<polyline class="st11" points="126.1,202.5 24,139.8 24,108.6 126.2,171 "/>
<g>
	
		<linearGradient id="SVGID_13_" gradientUnits="userSpaceOnUse" x1="122.3369" y1="224.3097" x2="129.8519" y2="224.3097" gradientTransform="matrix(1 0 0 -1 0 252)">
		<stop  offset="0" style="stop-color:#548FBC"/>
		<stop  offset="1" style="stop-color:#305A79"/>
	</linearGradient>
	<polygon class="st12" points="129.9,44.1 126,41.7 122.3,43.8 122.3,13.8 126.1,11.3 129.9,13.8 	"/>
	
		<linearGradient id="SVGID_14_" gradientUnits="userSpaceOnUse" x1="75.2959" y1="209.5749" x2="90.1036" y2="188.468" gradientTransform="matrix(1 0 0 -1 0 252)">
		<stop  offset="0" style="stop-color:#548FBC"/>
		<stop  offset="1" style="stop-color:#305A79"/>
	</linearGradient>
	<polyline class="st13" points="126.4,41.7 47.5,88.3 24,73.5 126.5,11.3 	"/>
	
		<linearGradient id="SVGID_15_" gradientUnits="userSpaceOnUse" x1="176.3828" y1="209.3242" x2="164.8888" y2="185.9746" gradientTransform="matrix(1 0 0 -1 0 252)">
		<stop  offset="0" style="stop-color:#548FBC"/>
		<stop  offset="1" style="stop-color:#305A79"/>
	</linearGradient>
	<polyline class="st14" points="126.1,11.3 226.7,73.9 202.4,89.3 126,41.7 	"/>
</g>
<linearGradient id="SVGID_16_" gradientUnits="userSpaceOnUse" x1="363.5961" y1="220.4777" x2="371.1111" y2="220.4777" gradientTransform="matrix(-1 0 0 1 493.0547 -69.7734)">
	<stop  offset="0" style="stop-color:#005B8C"/>
	<stop  offset="1" style="stop-color:#0C2B4B"/>
</linearGradient>
<polygon class="st15" points="121.9,134 126.2,136.5 129.5,134.2 129.5,165 126.1,167.4 121.9,164.2 "/>
<linearGradient id="SVGID_17_" gradientUnits="userSpaceOnUse" x1="310.0268" y1="199.8239" x2="324.3541" y2="179.4016" gradientTransform="matrix(-1 0 0 1 493.0547 -69.7734)">
	<stop  offset="0" style="stop-color:#548FBC"/>
	<stop  offset="1" style="stop-color:#305A79"/>
</linearGradient>
<polyline class="st16" points="126.2,136 226.7,73.9 226.7,104.1 126.1,167.4 "/>
<linearGradient id="SVGID_18_" gradientUnits="userSpaceOnUse" x1="423.7936" y1="202.0454" x2="411.3752" y2="176.8187" gradientTransform="matrix(-1 0 0 1 493.0547 -69.7734)">
	<stop  offset="0" style="stop-color:#548FBC"/>
	<stop  offset="1" style="stop-color:#305A79"/>
</linearGradient>
<polyline class="st17" points="126.1,167.4 24,104.8 24,73.5 126.2,136 "/>
</svg>
