<?xml version="1.0" encoding="utf-8"?>
<!-- Generator: Adobe Illustrator 18.1.1, SVG Export Plug-In . SVG Version: 6.00 Build 0)  -->
<svg version="1.1" id="Layer_1" xmlns="http://www.w3.org/2000/svg" xmlns:xlink="http://www.w3.org/1999/xlink" x="0px" y="0px"
	 viewBox="0 0 93 100" style="enable-background:new 0 0 93 100;" xml:space="preserve">
<style type="text/css">
	.st0{fill:#FFFFFF;}
</style>
<rect x="39.7" y="4.1" transform="matrix(1 3.280466e-03 -3.280466e-03 1 3.103048e-02 -0.1412)" class="st0" width="6.8" height="10.5"/>
<g>
	<polygon class="st0" points="56,68.1 56,60.6 48.6,60.7 	"/>
	<polygon class="st0" points="56,46.9 56,45.6 54.8,46.9 	"/>
	<path class="st0" d="M27.4,59.9c-0.7-0.7-1.1-1.6-1.1-2.6c0-1,0.4-1.9,1.1-2.6l3.8-3.8l-13.9,0c-3.3,0-6.1-2.7-6.1-6.1l0-19.3
		c0-3.3,2.7-6.1,6.1-6.1l24.2,0c3.3,0,6.1,2.7,6.1,6.1l0,9.1l8.4-8.4v-8.5c0-3.3-2.7-6.1-6.1-6.1l-41,0c-3.3,0-6.1,2.7-6.1,6.1
		l0,71.7c0,3.3,2.7,6.1,6.1,6.1l41,0c3.3,0,6.1-2.7,6.1-6.1v-0.9L27.4,59.9z M23.9,90.5l0-5.4l13.7,0l0,5.4L23.9,90.5z"/>
</g>
<g>
	<path class="st0" d="M60.9,26.6c-0.6-0.6-1.6-0.6-2.2,0L29,56.2c-0.6,0.6-0.6,1.6,0,2.2l31.1,31c0.6,0.6,1.6,0.6,2.2,0l22.9-24.2
		c0.6-0.6,0.4-1.1-0.5-1.1l-8.5,0c-0.9,0-2.1,0.5-2.7,1.1L62.8,75.7c-0.6,0.6-1.6,0.6-2.2,0l-16-16c-0.6-0.6-0.4-1.1,0.5-1.1
		l44.5-0.7c0.9,0,1.1-0.5,0.5-1.1L60.9,26.6z M51.5,49.1c-0.9,0-1.1-0.5-0.5-1.2l8.5-9.3c0.6-0.6,1.5-0.6,2.1,0l8.1,9.3
		c0.6,0.6,0.3,1.2-0.5,1.2L51.5,49.1z"/>
</g>
</svg>
