<?xml version="1.0" encoding="utf-8"?>
<!-- Generator: Adobe Illustrator 17.0.0, SVG Export Plug-In . SVG Version: 6.00 Build 0)  -->
<!DOCTYPE svg PUBLIC "-//W3C//DTD SVG 1.1//EN" "http://www.w3.org/Graphics/SVG/1.1/DTD/svg11.dtd">
<svg version="1.1" id="Layer_1" xmlns="http://www.w3.org/2000/svg" xmlns:xlink="http://www.w3.org/1999/xlink" x="0px" y="0px"
	 width="78px" height="64px" viewBox="0 0 78 64" enable-background="new 0 0 78 64" xml:space="preserve">
<rect x="4.701" y="6.307" transform="matrix(-0.9936 0.1128 -0.1128 -0.9936 59.1167 50.3303)" fill="#606060" width="46.867" height="41.061"/>
<rect x="8.229" y="8.929" transform="matrix(-0.9936 0.1128 -0.1128 -0.9936 62.3901 52.177)" fill="#FFFFFF" width="42.98" height="37.849"/>
<path fill="#606060" d="M38.754,10.554l-24.285,3.159c-1.118,0.145-1.906,1.17-1.761,2.287l3.62,27.827
	c0.145,1.117,1.17,1.906,2.288,1.76L42.9,42.428c1.118-0.145,1.906-1.17,1.761-2.287l-3.62-27.827
	C40.896,11.197,39.872,10.409,38.754,10.554z M21.893,43.103c0.036,0.279-0.16,0.536-0.44,0.572l-3.035,0.395
	c-0.279,0.036-0.536-0.161-0.572-0.441L17.517,41.1c-0.036-0.279,0.161-0.536,0.44-0.572l3.035-0.395
	c0.28-0.036,0.535,0.161,0.572,0.441L21.893,43.103z M21.235,38.045c0.036,0.278-0.16,0.535-0.44,0.571l-3.035,0.395
	c-0.279,0.036-0.536-0.161-0.572-0.44l-0.329-2.53c-0.036-0.279,0.161-0.536,0.44-0.572l3.035-0.395
	c0.28-0.036,0.535,0.161,0.572,0.441L21.235,38.045z M20.577,32.984c0.036,0.279-0.16,0.536-0.44,0.572l-3.035,0.395
	c-0.279,0.036-0.536-0.161-0.572-0.441l-0.33-2.528c-0.036-0.279,0.161-0.535,0.441-0.572l3.035-0.395
	c0.28-0.036,0.535,0.161,0.571,0.44L20.577,32.984z M19.919,27.926c0.036,0.279-0.16,0.535-0.44,0.571l-3.035,0.395
	c-0.279,0.036-0.536-0.16-0.572-0.44l-0.329-2.531c-0.036-0.278,0.161-0.535,0.441-0.572l3.035-0.395
	c0.28-0.036,0.535,0.162,0.571,0.44L19.919,27.926z M19.261,22.866c0.036,0.279-0.16,0.534-0.44,0.571l-3.035,0.395
	c-0.279,0.036-0.536-0.16-0.572-0.439l-0.329-2.53c-0.036-0.279,0.161-0.535,0.441-0.572l3.035-0.395
	c0.28-0.036,0.535,0.161,0.571,0.44L19.261,22.866z M18.602,17.807c0.036,0.279-0.16,0.535-0.44,0.571l-3.035,0.395
	c-0.279,0.036-0.536-0.16-0.572-0.44l-0.329-2.53c-0.036-0.278,0.161-0.536,0.44-0.572l3.035-0.395
	c0.28-0.036,0.535,0.162,0.572,0.441L18.602,17.807z M37.578,41.063c0.036,0.279-0.161,0.536-0.44,0.572l-13.154,1.711
	c-0.279,0.036-0.536-0.161-0.572-0.441l-1.645-12.648c-0.036-0.279,0.161-0.535,0.44-0.572l13.154-1.711
	c0.279-0.036,0.536,0.16,0.572,0.44L37.578,41.063z M35.163,26.457l-13.154,1.711c-0.279,0.036-0.536-0.161-0.572-0.44
	l-1.646-12.649c-0.036-0.278,0.161-0.536,0.44-0.572l13.154-1.711c0.279-0.036,0.536,0.162,0.572,0.441l1.646,12.649
	C35.639,26.165,35.442,26.421,35.163,26.457z M43.143,40.339c0.036,0.279-0.161,0.536-0.441,0.572l-3.035,0.395
	c-0.28,0.036-0.535-0.161-0.572-0.441l-0.329-2.529c-0.036-0.279,0.16-0.536,0.44-0.572l3.035-0.395
	c0.279-0.036,0.536,0.161,0.572,0.441L43.143,40.339z M42.485,35.28c0.036,0.278-0.161,0.535-0.441,0.572l-3.035,0.395
	c-0.28,0.036-0.535-0.161-0.571-0.44l-0.329-2.53c-0.036-0.279,0.16-0.536,0.44-0.572l3.035-0.395
	c0.279-0.036,0.536,0.161,0.572,0.441L42.485,35.28z M41.827,30.22c0.036,0.279-0.161,0.536-0.441,0.572l-3.035,0.395
	c-0.28,0.036-0.535-0.161-0.572-0.441l-0.329-2.529c-0.036-0.279,0.16-0.535,0.44-0.571l3.035-0.395
	c0.279-0.036,0.536,0.16,0.572,0.44L41.827,30.22z M41.169,25.161c0.036,0.279-0.161,0.535-0.441,0.572l-3.035,0.395
	c-0.28,0.036-0.535-0.161-0.571-0.44l-0.329-2.531c-0.036-0.278,0.16-0.535,0.44-0.572l3.035-0.395
	c0.279-0.036,0.536,0.162,0.572,0.44L41.169,25.161z M40.511,20.102c0.036,0.279-0.162,0.534-0.441,0.571l-3.035,0.395
	c-0.28,0.036-0.535-0.16-0.571-0.439l-0.329-2.53c-0.036-0.279,0.16-0.535,0.44-0.572l3.035-0.395
	c0.279-0.036,0.536,0.16,0.572,0.44L40.511,20.102z M39.853,15.042c0.036,0.279-0.161,0.535-0.441,0.572l-3.035,0.395
	c-0.28,0.036-0.535-0.161-0.571-0.44l-0.329-2.53c-0.036-0.278,0.16-0.536,0.44-0.572l3.035-0.395
	c0.279-0.036,0.536,0.162,0.572,0.441L39.853,15.042z"/>
<path fill="#606060" d="M50.844,4.495l6.133,48.972c0.233,1.866-1.088,3.567-2.954,3.8L10.962,62.66
	c-1.866,0.234-3.567-1.088-3.8-2.954L1.027,10.735c-0.233-1.866,1.089-3.567,2.953-3.8l43.062-5.394
	C48.91,1.307,50.611,2.629,50.844,4.495z M9.27,49.152l43.061-5.394l-4.864-38.84L4.406,10.311L9.27,49.152z"/>
<path fill="#606060" stroke="#FFFFFF" stroke-width="1.5" stroke-miterlimit="10" d="M77.103,10.949l-6.508,48.923
	c-0.248,1.864-1.959,3.174-3.823,2.925l-43.019-5.722c-1.864-0.247-3.173-1.958-2.925-3.822l6.507-48.924
	c0.249-1.864,1.959-3.174,3.822-2.925l43.02,5.722C76.042,7.375,77.351,9.085,77.103,10.949z M25.548,43.58l43.019,5.722
	L73.729,10.5L30.711,4.777L25.548,43.58z"/>
<rect x="26.371" y="6.413" transform="matrix(-0.9897 -0.1433 0.1433 -0.9897 95.1475 61.9697)" fill="#606060" width="46.869" height="42.292"/>
<rect x="29.028" y="8.606" transform="matrix(-0.9897 -0.1433 0.1433 -0.9897 94.5926 60.5939)" fill="#FFFFFF" width="40.901" height="36.57"/>
<path fill="#606060" d="M66.752,35.834c0.177-1.084-0.037-2.195-0.602-3.137L64.052,29.2c-0.753-1.103-2.266-1.349-3.331-0.542
	l-6.109,4.654l-7.904-15.385c-0.677-1.326-2.416-1.68-3.553-0.719L32.506,26.44c-0.821,0.713-1.368,1.69-1.542,2.763l-1.597,9.802
	l35.917,5.852L66.752,35.834z M63.037,22.523c2.323,0.379,4.509-1.195,4.888-3.517c0.378-2.324-1.195-4.509-3.517-4.888
	c-2.323-0.379-4.509,1.195-4.888,3.518C59.142,19.959,60.715,22.145,63.037,22.523z"/>
</svg>
