<?xml version="1.0" encoding="utf-8"?>
<!-- Generator: Adobe Illustrator 18.1.1, SVG Export Plug-In . SVG Version: 6.00 Build 0)  -->
<svg version="1.1" id="Layer_1" xmlns="http://www.w3.org/2000/svg" xmlns:xlink="http://www.w3.org/1999/xlink" x="0px" y="0px"
	 viewBox="0 0 52 62" style="enable-background:new 0 0 52 62;" xml:space="preserve">
<style type="text/css">
	.st0{fill:#FFFFFF;}
</style>
<g>
	<path class="st0" d="M16,17v27h36V17H16z M51,39H17V29h34V39z M51,23H17v-2h34V23z"/>
	<path class="st0" d="M38,47v8H5V10h33v4h4V4.2C42,1.9,39.7,0,37.4,0H4.2C1.9,0,0,1.9,0,4.2v54.1C0,60.5,1.9,62,4.2,62h33.3
		c2.3,0,4.6-1.5,4.6-3.8V47H38z M30,4h5v3h-5V4z M16,4h10v3H16V4z M26,59h-9v-3h9V59z"/>
</g>
</svg>
