<?xml version="1.0" encoding="utf-8"?>
<!-- Generator: Adobe Illustrator 18.1.1, SVG Export Plug-In . SVG Version: 6.00 Build 0)  -->
<svg version="1.1" id="Layer_1" xmlns="http://www.w3.org/2000/svg" xmlns:xlink="http://www.w3.org/1999/xlink" x="0px" y="0px"
	 viewBox="0 0 62 65.1" style="enable-background:new 0 0 62 65.1;" xml:space="preserve">
<style type="text/css">
	.st0{fill:#FFFFFF;}
</style>
<path class="st0" d="M54.2,18.1H47v-0.8C47,7.8,39.1,0,29.5,0S12,7.8,12,17.3v0.8H6.5c-3.9,0-6.5,2.6-6.5,6.6v33.2
	c0,4.2,2.7,7.3,6.5,7.3h47.7c3.7,0,7.8-3.1,7.8-7.3V24.7C62,20.6,58,18.1,54.2,18.1z M19,47.1v-11v-2v-10h22h2v10H31h-2v2v11v2v10
	H19v-10V47.1z M17,47.1H6v-11h11V47.1z M43,47.1H31v-11h12V47.1z M31,49.1h12V53c0,0,0.3,3.7-2.9,6.1H31V49.1z M18,17.3
	C18,11.2,23.3,6,29.5,6S41,11.2,41,17.3v0.8H18V17.3z M6.1,24.2c0.1,0,0.2,0,0.4,0H12h5v10H6v-9.4C6,24.4,6,24.3,6.1,24.2z M6,57.8
	v-8.7h11v10H6.5C6.1,59.1,6,58.1,6,57.8z"/>
</svg>
