<?xml version="1.0" encoding="utf-8"?>
<!-- Generator: Adobe Illustrator 18.1.1, SVG Export Plug-In . SVG Version: 6.00 Build 0)  -->
<svg version="1.1" id="Layer_1" xmlns="http://www.w3.org/2000/svg" xmlns:xlink="http://www.w3.org/1999/xlink" x="0px" y="0px"
	 viewBox="0 0 68.6 41.1" style="enable-background:new 0 0 68.6 41.1;" xml:space="preserve">
<style type="text/css">
	.st0{fill:#FFFFFF;}
</style>
<g>
	<g>
		<path class="st0" d="M20,9.3c-0.2-0.3-0.4-0.5-0.7-0.6c-0.3-0.2-0.6-0.2-1-0.2c-0.4,0-0.7,0.1-1,0.2C17,8.8,16.8,9,16.6,9.3
			c-0.2,0.3-0.3,0.6-0.4,0.9c-0.1,0.3-0.1,0.7-0.1,1c0,0.3,0,0.7,0.1,1c0.1,0.3,0.2,0.6,0.4,0.9c0.2,0.3,0.4,0.5,0.7,0.6
			c0.3,0.2,0.6,0.2,1,0.2c0.4,0,0.7-0.1,1-0.2c0.3-0.2,0.5-0.4,0.7-0.6c0.2-0.3,0.3-0.6,0.4-0.9c0.1-0.3,0.1-0.7,0.1-1
			c0-0.4,0-0.7-0.1-1C20.3,9.8,20.2,9.5,20,9.3z M0,0v41.1h68.6V0H0z M9.1,34.3H6.9v-16h2.3V34.3z M9.2,15.2L6.6,7.1h1.8l1.8,5.7h0
			l1.8-5.7H14l-2.7,8.2H9.2z M18.3,34.3h-6.9v-16h6.9V34.3z M18.3,15.4c-0.6,0-1.2-0.1-1.7-0.3c-0.5-0.2-0.9-0.5-1.3-0.9
			c-0.3-0.4-0.6-0.8-0.8-1.3c-0.2-0.5-0.3-1.1-0.3-1.7c0-0.6,0.1-1.2,0.3-1.7c0.2-0.5,0.4-1,0.8-1.4c0.3-0.4,0.8-0.7,1.3-0.9
			c0.5-0.2,1.1-0.3,1.7-0.3C19,6.9,19.5,7,20,7.2s0.9,0.5,1.3,0.9c0.3,0.4,0.6,0.8,0.8,1.4c0.2,0.5,0.3,1.1,0.3,1.7
			c0,0.6-0.1,1.1-0.3,1.7c-0.2,0.5-0.4,1-0.8,1.3c-0.3,0.4-0.8,0.7-1.3,0.9C19.5,15.3,19,15.4,18.3,15.4z M25.1,34.3h-4.6v-16h4.6
			V34.3z M29.7,34.3h-2.3v-16h2.3V34.3z M30.5,12.2c0,1.1-0.3,1.9-0.9,2.5c-0.6,0.5-1.5,0.8-2.6,0.8c-1.1,0-2-0.3-2.6-0.8
			c-0.6-0.5-0.9-1.4-0.9-2.5V7.1h1.8v5.1c0,0.2,0,0.4,0.1,0.7c0,0.2,0.1,0.4,0.2,0.6c0.1,0.2,0.3,0.3,0.5,0.4
			c0.2,0.1,0.5,0.2,0.9,0.2c0.6,0,1.1-0.1,1.3-0.4c0.2-0.3,0.4-0.7,0.4-1.3V7.1h1.8V12.2z M34.3,34.3H32v-16h2.3V34.3z M34,15.1
			c-0.5-0.2-0.9-0.5-1.3-0.9c-0.3-0.4-0.6-0.8-0.8-1.3c-0.2-0.5-0.3-1.1-0.3-1.7c0-0.6,0.1-1.2,0.3-1.7c0.2-0.5,0.4-1,0.8-1.4
			c0.3-0.4,0.8-0.7,1.3-0.9s1.1-0.3,1.7-0.3c0.4,0,0.9,0.1,1.3,0.2c0.4,0.1,0.8,0.3,1.1,0.6c0.3,0.2,0.6,0.6,0.8,0.9
			c0.2,0.4,0.3,0.8,0.4,1.3h-1.7c0-0.2-0.1-0.4-0.2-0.6c-0.1-0.2-0.2-0.3-0.4-0.5c-0.2-0.1-0.3-0.2-0.5-0.3
			c-0.2-0.1-0.4-0.1-0.6-0.1c-0.4,0-0.7,0.1-1,0.2C34.4,8.8,34.1,9,34,9.3c-0.2,0.3-0.3,0.6-0.4,0.9c-0.1,0.3-0.1,0.7-0.1,1
			c0,0.3,0,0.7,0.1,1c0.1,0.3,0.2,0.6,0.4,0.9c0.2,0.3,0.4,0.5,0.7,0.6c0.3,0.2,0.6,0.2,1,0.2c0.5,0,1-0.2,1.3-0.5
			c0.3-0.3,0.5-0.8,0.6-1.3h1.7c0,0.5-0.2,1-0.4,1.4c-0.2,0.4-0.4,0.8-0.8,1.1c-0.3,0.3-0.7,0.5-1.1,0.7c-0.4,0.2-0.9,0.2-1.4,0.2
			C35.1,15.4,34.5,15.3,34,15.1z M43.4,34.3h-6.9v-16h6.9V34.3z M42.3,11.7v3.5h-1.8V7.1h1.8v3.1h3.3V7.1h1.8v8.2h-1.8v-3.5H42.3z
			 M48,34.3h-2.3v-16H48V34.3z M49,7.1h6.1v1.5h-4.3v1.7h4v1.4h-4v2h4.4v1.5H49V7.1z M57.1,34.3h-6.9v-16h6.9V34.3z M61.7,34.3h-2.3
			v-16h2.3V34.3z M61.6,15.2c-0.1-0.3-0.2-0.6-0.2-0.9c0-0.4-0.1-0.7-0.1-1c-0.1-0.4-0.2-0.7-0.4-0.9c-0.2-0.2-0.5-0.3-1-0.3h-1.8
			v3.2h-1.8V7.1h4.4c0.4,0,0.7,0.1,1,0.2c0.3,0.1,0.5,0.3,0.8,0.5c0.2,0.2,0.4,0.4,0.5,0.7c0.1,0.3,0.2,0.6,0.2,0.9
			c0,0.5-0.1,0.9-0.3,1.2c-0.2,0.4-0.5,0.6-1,0.8v0c0.2,0.1,0.4,0.2,0.5,0.3c0.1,0.1,0.3,0.3,0.4,0.4c0.1,0.2,0.2,0.4,0.2,0.6
			c0,0.2,0.1,0.4,0.1,0.6c0,0.1,0,0.3,0,0.5c0,0.2,0,0.4,0,0.5s0.1,0.4,0.1,0.5c0,0.2,0.1,0.3,0.2,0.4H61.6z M60.1,8.5h-2v2.3h2
			c0.4,0,0.7-0.1,0.9-0.3c0.2-0.2,0.3-0.5,0.3-0.9c0-0.4-0.1-0.7-0.3-0.9C60.8,8.6,60.5,8.5,60.1,8.5z"/>
	</g>
</g>
</svg>
